<svg xmlns="http://www.w3.org/2000/svg" width="15" height="15" viewBox="0 0 15 15">
  <metadata><?xpacket begin="﻿" id="W5M0MpCehiHzreSzNTczkc9d"?>
<x:xmpmeta xmlns:x="adobe:ns:meta/" x:xmptk="Adobe XMP Core 5.6-c138 79.159824, 2016/09/14-01:09:01        ">
   <rdf:RDF xmlns:rdf="http://www.w3.org/1999/02/22-rdf-syntax-ns#">
      <rdf:Description rdf:about=""/>
   </rdf:RDF>
</x:xmpmeta>
                                                                                                    
                                                                                                    
                                                                                                    
                                                                                                    
                                                                                                    
                                                                                                    
                                                                                                    
                                                                                                    
                                                                                                    
                                                                                                    
                                                                                                    
                                                                                                    
                                                                                                    
                                                                                                    
                                                                                                    
                                                                                                    
                                                                                                    
                                                                                                    
                                                                                                    
                                                                                                    
                           
<?xpacket end="w"?></metadata>
<defs>
    <style>
      .cls-1 {
        fill: #999;
        fill-rule: evenodd;
      }
    </style>
  </defs>
  <path id="https:_www.flaticon.com_free-icon_calendar_833588" data-name="https://www.flaticon.com/free-icon/calendar_833588" class="cls-1" d="M428.759,6151.57a0.585,0.585,0,1,1-.586.58A0.584,0.584,0,0,1,428.759,6151.57Zm0,2.55a0.584,0.584,0,0,1,.586.58,0.586,0.586,0,1,1-1.172,0A0.583,0.583,0,0,1,428.759,6154.12Zm2.549-2.55a0.585,0.585,0,1,1-.586.58A0.584,0.584,0,0,1,431.308,6151.57Zm3.105,1.75a0.583,0.583,0,0,0,.586-0.58v-3.22a2.346,2.346,0,0,0-2.343-2.35h-0.762v-0.58a0.586,0.586,0,1,0-1.172,0v0.58h-2.666v-0.58a0.586,0.586,0,1,0-1.172,0v0.58h-2.637v-0.58a0.586,0.586,0,1,0-1.172,0v0.58h-0.733a2.346,2.346,0,0,0-2.343,2.35v9.14a2.344,2.344,0,0,0,2.343,2.34h7.5a0.575,0.575,0,0,0,.422-0.18l4.571-4.75a0.575,0.575,0,0,0,.117-0.63,0.583,0.583,0,0,0-.54-0.36H431.6a2.347,2.347,0,0,0-2.344,2.35v2.4h-6.915a1.175,1.175,0,0,1-1.171-1.17v-9.14a1.177,1.177,0,0,1,1.171-1.18h0.733v0.59a0.586,0.586,0,1,0,1.172,0v-0.59h2.637v0.59a0.586,0.586,0,1,0,1.172,0v-0.59h2.666v0.59a0.586,0.586,0,1,0,1.172,0v-0.59h0.762a1.178,1.178,0,0,1,1.172,1.18v3.22A0.583,0.583,0,0,0,434.413,6153.32Zm-3.984,4.11a1.178,1.178,0,0,1,1.172-1.18h1.435l-2.607,2.71v-1.53Zm-6.768-5.86a0.585,0.585,0,1,1-.586.58A0.583,0.583,0,0,1,423.661,6151.57Zm2.549,2.55a0.583,0.583,0,0,1,.586.58,0.586,0.586,0,1,1-1.172,0A0.583,0.583,0,0,1,426.21,6154.12Zm-2.549,2.54a0.59,0.59,0,1,1-.586.59A0.592,0.592,0,0,1,423.661,6156.66Zm0-2.54a0.583,0.583,0,0,1,.586.58,0.586,0.586,0,1,1-1.172,0A0.583,0.583,0,0,1,423.661,6154.12Zm2.549,2.54a0.59,0.59,0,1,1-.586.59A0.592,0.592,0,0,1,426.21,6156.66Zm0-5.09a0.585,0.585,0,1,1-.586.58A0.583,0.583,0,0,1,426.21,6151.57Z" transform="translate(-420 -6146)"/>
</svg>
