<svg xmlns="http://www.w3.org/2000/svg" width="27" height="36" viewBox="0 0 27 36">
  <metadata><?xpacket begin="﻿" id="W5M0MpCehiHzreSzNTczkc9d"?>
<x:xmpmeta xmlns:x="adobe:ns:meta/" x:xmptk="Adobe XMP Core 5.6-c138 79.159824, 2016/09/14-01:09:01        ">
   <rdf:RDF xmlns:rdf="http://www.w3.org/1999/02/22-rdf-syntax-ns#">
      <rdf:Description rdf:about=""/>
   </rdf:RDF>
</x:xmpmeta>
                                                                                                    
                                                                                                    
                                                                                                    
                                                                                                    
                                                                                                    
                                                                                                    
                                                                                                    
                                                                                                    
                                                                                                    
                                                                                                    
                                                                                                    
                                                                                                    
                                                                                                    
                                                                                                    
                                                                                                    
                                                                                                    
                                                                                                    
                                                                                                    
                                                                                                    
                                                                                                    
                           
<?xpacket end="w"?></metadata>
<defs>
    <style>
      .cls-1 {
        fill: #00c424;
        fill-rule: evenodd;
      }
    </style>
  </defs>
  <path id="https:_www.flaticon.com_free-icon_money-bag_841299" data-name="https://www.flaticon.com/free-icon/money-bag_841299" class="cls-1" d="M546.311,1329.87l-1.342-1.36a5.364,5.364,0,0,0,1.646-3.86v-0.36a3.115,3.115,0,1,0-6.23,0v0.36a5.329,5.329,0,0,0,1.646,3.86l-1.342,1.36a1.064,1.064,0,0,0,0,1.49,1.03,1.03,0,0,0,1.468,0L543.5,1330l1.343,1.36a1.03,1.03,0,0,0,1.468,0A1.064,1.064,0,0,0,546.311,1329.87Zm-1.773-5.22a1.408,1.408,0,1,1-2.076,0v-0.36a1.038,1.038,0,1,1,2.076,0v0.36Zm10.279-3.5-5.437-7.03a3.169,3.169,0,0,0-1.722-5.79,8.343,8.343,0,0,0,1.034-4.04v-1.24a1.044,1.044,0,0,0-1.038-1.05h-8.308a1.044,1.044,0,0,0-1.038,1.05v1.24a8.343,8.343,0,0,0,1.034,4.04,3.169,3.169,0,0,0-1.722,5.79l-5.437,7.03a10.233,10.233,0,0,0-2.183,6.32v0.4a10.169,10.169,0,0,0,4.442,8.43,9.857,9.857,0,0,0,5.533,1.7h7.05a9.857,9.857,0,0,0,5.533-1.7,10.169,10.169,0,0,0,4.442-8.43v-0.4A10.233,10.233,0,0,0,554.817,1321.15Zm-14.432-17.04h6.23v0.18a6.164,6.164,0,0,1-1.488,4.04h-0.589v-1.06a1.038,1.038,0,1,0-2.076,0v1.06h-0.589a6.164,6.164,0,0,1-1.488-4.04v-0.18Zm-1.039,6.33h8.308a1.05,1.05,0,0,1,0,2.1h-8.308A1.05,1.05,0,0,1,539.346,1310.44Zm15.577,17.43a8.028,8.028,0,0,1-3.517,6.67,7.8,7.8,0,0,1-4.381,1.35h-7.05a7.8,7.8,0,0,1-4.381-1.35,8.028,8.028,0,0,1-3.517-6.67v-0.4a8.144,8.144,0,0,1,1.731-5.01s0,0,0-.01l6.038-7.8h7.3l6.038,7.8c0,0.01,0,.01,0,0.01a8.144,8.144,0,0,1,1.731,5.01v0.4Z" transform="translate(-530 -1302)"/>
</svg>
