<svg xmlns="http://www.w3.org/2000/svg" width="31" height="34" viewBox="0 0 31 34">
  <metadata><?xpacket begin="﻿" id="W5M0MpCehiHzreSzNTczkc9d"?>
<x:xmpmeta xmlns:x="adobe:ns:meta/" x:xmptk="Adobe XMP Core 5.6-c138 79.159824, 2016/09/14-01:09:01        ">
   <rdf:RDF xmlns:rdf="http://www.w3.org/1999/02/22-rdf-syntax-ns#">
      <rdf:Description rdf:about=""/>
   </rdf:RDF>
</x:xmpmeta>
                                                                                                    
                                                                                                    
                                                                                                    
                                                                                                    
                                                                                                    
                                                                                                    
                                                                                                    
                                                                                                    
                                                                                                    
                                                                                                    
                                                                                                    
                                                                                                    
                                                                                                    
                                                                                                    
                                                                                                    
                                                                                                    
                                                                                                    
                                                                                                    
                                                                                                    
                                                                                                    
                           
<?xpacket end="w"?></metadata>
<defs>
    <style>
      .cls-1 {
        fill: #00c424;
        fill-rule: evenodd;
      }
    </style>
  </defs>
  <path id="https:_www.flaticon.com_free-icon_cardiogram_841310" data-name="https://www.flaticon.com/free-icon/cardiogram_841310" class="cls-1" d="M558.884,1549.51l-3.806-7.35c0.03-.38.045-0.76,0.045-1.15a13.569,13.569,0,1,0-27.124,0,14.094,14.094,0,0,0,3.875,9.76V1560a0.986,0.986,0,0,0,.969,1h13.562a0.981,0.981,0,0,0,.685-0.29,1.012,1.012,0,0,0,.277-0.71v-3.05h4.85a2.951,2.951,0,0,0,2.906-2.99v-2.99h2.906a0.96,0.96,0,0,0,.831-0.48A1.019,1.019,0,0,0,558.884,1549.51Zm-4.729-.53a0.986,0.986,0,0,0-.969,1v3.98a0.987,0.987,0,0,1-.969,1h-5.812a0.941,0.941,0,0,0-.685.29,1.012,1.012,0,0,0-.284.7v3.06H533.812v-8.65a0.986,0.986,0,0,0-.3-0.72,12.025,12.025,0,0,1-3.577-8.63,11.631,11.631,0,1,1,23.249,0q0,0.63-.063,1.26a1.032,1.032,0,0,0,.108.57l3.184,6.14h-2.26Zm-3.875-7.97h-1.443a5.115,5.115,0,0,0,.474-2.16,5.031,5.031,0,0,0-1.177-3.3,4.106,4.106,0,0,0-3.145-1.44,4.055,4.055,0,0,0-3.353,1.82,4.055,4.055,0,0,0-3.353-1.82,4.106,4.106,0,0,0-3.145,1.44,5.031,5.031,0,0,0-1.177,3.3,5.115,5.115,0,0,0,.474,2.16h-1.592a1,1,0,0,0,0,1.99h2.928a63.406,63.406,0,0,0,5.23,4.81,0.959,0.959,0,0,0,1.269,0,63.406,63.406,0,0,0,5.23-4.81h2.78A1,1,0,0,0,550.28,1541.01Zm-8.644,4.74c-1.276-1.13-2.432-2.1-3.347-2.96,0.028-.03.056-0.05,0.083-0.08l1.252-1.29,1.253,1.29a0.953,0.953,0,0,0,1.369,0l1.253-1.29,1.252,1.29a1.18,1.18,0,0,0,.167.14C544.016,1543.7,542.878,1544.65,541.636,1545.75Zm4.96-4.74h-0.759l-1.653-1.7a0.948,0.948,0,0,0-1.37,0l-1.253,1.29-1.252-1.29a0.948,0.948,0,0,0-1.37,0l-1.654,1.7h-0.609a3.674,3.674,0,0,1-.778-2.16,2.528,2.528,0,0,1,2.385-2.75c1.768,0,2.395,2.17,2.421,2.26a0.961,0.961,0,0,0,1.866,0c0.006-.02.628-2.26,2.419-2.26a2.528,2.528,0,0,1,2.385,2.75A3.674,3.674,0,0,1,546.6,1541.01Z" transform="translate(-528 -1527)"/>
</svg>
