<svg xmlns="http://www.w3.org/2000/svg" width="38" height="36" viewBox="0 0 38 36">
  <metadata><?xpacket begin="﻿" id="W5M0MpCehiHzreSzNTczkc9d"?>
<x:xmpmeta xmlns:x="adobe:ns:meta/" x:xmptk="Adobe XMP Core 5.6-c138 79.159824, 2016/09/14-01:09:01        ">
   <rdf:RDF xmlns:rdf="http://www.w3.org/1999/02/22-rdf-syntax-ns#">
      <rdf:Description rdf:about=""/>
   </rdf:RDF>
</x:xmpmeta>
                                                                                                    
                                                                                                    
                                                                                                    
                                                                                                    
                                                                                                    
                                                                                                    
                                                                                                    
                                                                                                    
                                                                                                    
                                                                                                    
                                                                                                    
                                                                                                    
                                                                                                    
                                                                                                    
                                                                                                    
                                                                                                    
                                                                                                    
                                                                                                    
                                                                                                    
                                                                                                    
                           
<?xpacket end="w"?></metadata>
<defs>
    <style>
      .cls-1 {
        fill: #00c424;
        fill-rule: evenodd;
      }
    </style>
  </defs>
  <path id="https:_www.flaticon.com_free-icon_piggy-bank_841328" data-name="https://www.flaticon.com/free-icon/piggy-bank_841328" class="cls-1" d="M1037.01,1547.83l-1.44-1.46a5.621,5.621,0,0,0,1.77-4.11v-0.39a3.34,3.34,0,1,0-6.68,0v0.39a5.6,5.6,0,0,0,1.77,4.11l-1.44,1.46a1.123,1.123,0,0,0,0,1.59,1.1,1.1,0,0,0,1.57,0l1.44-1.45,1.44,1.45a1.1,1.1,0,0,0,1.57,0A1.123,1.123,0,0,0,1037.01,1547.83Zm-1.9-5.57a1.5,1.5,0,1,1-2.22,0v-0.39a1.11,1.11,0,1,1,2.22,0v0.39Zm-12.24-1.51a1.125,1.125,0,1,1-1.12,1.12A1.116,1.116,0,0,1,1022.87,1540.75Zm30.13-7.88a1.115,1.115,0,1,0-2.23,0,5.589,5.589,0,0,1-2.82,4.9,11.583,11.583,0,0,0-.95-1.04,17.459,17.459,0,0,0-7.73-4.29,5.725,5.725,0,0,0,.3-1.81,5.57,5.57,0,1,0-10.83,1.83c-0.43.12-.86,0.25-1.28,0.4l-1.04-1.05a7.81,7.81,0,0,0-11.09,0,1.136,1.136,0,0,0-.33.8,1.112,1.112,0,0,0,.33.79l4.62,4.6a12.666,12.666,0,0,0-1.69,2.75,3.462,3.462,0,0,0-2.23.97,3.339,3.339,0,0,0-1.03,2.4v4.5a3.345,3.345,0,0,0,1.03,2.41,3.411,3.411,0,0,0,2.38.97h1.13a15.16,15.16,0,0,0,4.44,4.02v3.86a1.116,1.116,0,0,0,1.11,1.12h4.46a1.116,1.116,0,0,0,1.11-1.12v-1.4a20.793,20.793,0,0,0,6.68,0v1.4a1.116,1.116,0,0,0,1.11,1.12h4.46a1.116,1.116,0,0,0,1.11-1.12v-3.83c4.24-2.57,6.75-6.56,6.75-10.8a11.341,11.341,0,0,0-1.53-5.63A7.888,7.888,0,0,0,1053,1532.87Zm-19-5.62a3.375,3.375,0,1,1-3.34,3.38A3.361,3.361,0,0,1,1034,1527.25Zm8.37,27.16a1.131,1.131,0,0,0-.58.99v3.35h-2.22v-1.64a1.165,1.165,0,0,0-.42-0.89,1.121,1.121,0,0,0-.95-0.21,18.336,18.336,0,0,1-8.4,0,1.093,1.093,0,0,0-.94.21,1.143,1.143,0,0,0-.43.89v1.64h-2.22v-3.38a1.131,1.131,0,0,0-.58-0.99,12.843,12.843,0,0,1-4.57-4.12,1.09,1.09,0,0,0-.93-0.51h-1.72a1.187,1.187,0,0,1-1.18-1.13v-4.5a1.185,1.185,0,0,1,1.18-1.12h0.61a1.11,1.11,0,0,0,1.04-.74,10.43,10.43,0,0,1,2.23-3.55,1.136,1.136,0,0,0-.03-1.57l-4.49-4.46a5.591,5.591,0,0,1,7.08.72l1.54,1.55a1.085,1.085,0,0,0,1.18.26,18.055,18.055,0,0,1,2.37-.74,5.55,5.55,0,0,0,4.06,1.78,5.483,5.483,0,0,0,4.07-1.8c6.11,1.4,10.48,5.86,10.48,10.8C1048.55,1548.84,1046.24,1552.27,1042.37,1554.41Z" transform="translate(-1015 -1525)"/>
</svg>
