<svg xmlns="http://www.w3.org/2000/svg" width="18" height="18" viewBox="0 0 18 18">
  <metadata><?xpacket begin="﻿" id="W5M0MpCehiHzreSzNTczkc9d"?>
<x:xmpmeta xmlns:x="adobe:ns:meta/" x:xmptk="Adobe XMP Core 5.6-c138 79.159824, 2016/09/14-01:09:01        ">
   <rdf:RDF xmlns:rdf="http://www.w3.org/1999/02/22-rdf-syntax-ns#">
      <rdf:Description rdf:about=""/>
   </rdf:RDF>
</x:xmpmeta>
                                                                                                    
                                                                                                    
                                                                                                    
                                                                                                    
                                                                                                    
                                                                                                    
                                                                                                    
                                                                                                    
                                                                                                    
                                                                                                    
                                                                                                    
                                                                                                    
                                                                                                    
                                                                                                    
                                                                                                    
                                                                                                    
                                                                                                    
                                                                                                    
                                                                                                    
                                                                                                    
                           
<?xpacket end="w"?></metadata>
<defs>
    <style>
      .cls-1 {
        fill: #7f7f7f;
        fill-rule: evenodd;
      }
    </style>
  </defs>
  <path id="https:_www.flaticon.com_free-icon_success_1152929" data-name="https://www.flaticon.com/free-icon/success_1152929" class="cls-1" d="M565.061,3780.65h-2.3v-1.77h3.71a0.53,0.53,0,0,0,.527-0.53,0.542,0.542,0,0,0-.171-0.39l-1.023-1.02,1.039-1.04a0.521,0.521,0,0,0,.114-0.57,0.526,0.526,0,0,0-.487-0.33h-4.237a0.53,0.53,0,0,0-.527.53v5.12h-0.6a1.942,1.942,0,0,0-1.94,1.94v1.1a1.889,1.889,0,0,0-.885-0.22h-0.565a1.942,1.942,0,0,0-1.939,1.94v1.1a1.888,1.888,0,0,0-.885-0.21h-0.565a1.942,1.942,0,0,0-1.94,1.94v1.1a1.888,1.888,0,0,0-.884-0.22h-0.565a1.942,1.942,0,0,0-1.94,1.94v1.41a0.53,0.53,0,0,0,.528.53h16.946a0.53,0.53,0,0,0,.527-0.53v-9.88A1.942,1.942,0,0,0,565.061,3780.65Zm-2.3-4.6H565.2l-0.512.52a0.519,0.519,0,0,0,0,.74l0.512,0.51h-2.436v-1.77Zm-12.71,15.01a0.88,0.88,0,0,1,.885-0.88H551.5a0.88,0.88,0,0,1,.884.88v0.89h-2.334v-0.89Zm3.389,0v-2.82a0.889,0.889,0,0,1,.885-0.89h0.565a0.889,0.889,0,0,1,.885.89v3.71h-2.335v-0.89Zm3.389-2.82v-2.83a0.881,0.881,0,0,1,.885-0.88h0.565a0.88,0.88,0,0,1,.885.88v6.54h-2.335v-3.71Zm9.114,3.71h-5.724v-9.36a0.889,0.889,0,0,1,.885-0.89h3.954a0.889,0.889,0,0,1,.885.89v9.36Z" transform="translate(-549 -3775)"/>
</svg>
