<svg xmlns="http://www.w3.org/2000/svg" width="17" height="16.97" viewBox="0 0 17 16.97">
  <metadata><?xpacket begin="﻿" id="W5M0MpCehiHzreSzNTczkc9d"?>
<x:xmpmeta xmlns:x="adobe:ns:meta/" x:xmptk="Adobe XMP Core 5.6-c138 79.159824, 2016/09/14-01:09:01        ">
   <rdf:RDF xmlns:rdf="http://www.w3.org/1999/02/22-rdf-syntax-ns#">
      <rdf:Description rdf:about=""/>
   </rdf:RDF>
</x:xmpmeta>
                                                                                                    
                                                                                                    
                                                                                                    
                                                                                                    
                                                                                                    
                                                                                                    
                                                                                                    
                                                                                                    
                                                                                                    
                                                                                                    
                                                                                                    
                                                                                                    
                                                                                                    
                                                                                                    
                                                                                                    
                                                                                                    
                                                                                                    
                                                                                                    
                                                                                                    
                                                                                                    
                           
<?xpacket end="w"?></metadata>
<defs>
    <style>
      .cls-1 {
        fill: #7f7f7f;
        fill-rule: evenodd;
      }
    </style>
  </defs>
  <path id="https:_www.flaticon.com_free-icon_goal_1666577_term_goal_page_1_position_33" data-name="https://www.flaticon.com/free-icon/goal_1666577#term=goal&amp;page=1&amp;position=33" class="cls-1" d="M398.787,3780.49l-0.794,2.61a0.652,0.652,0,0,0,.16.65,0.664,0.664,0,0,0,.476.2,1.066,1.066,0,0,0,.177-0.02l2.68-.74a0.669,0.669,0,0,0,.292-0.17l3.638-3.63a1.985,1.985,0,0,0,0-2.81,2.006,2.006,0,0,0-2.817,0l-3.645,3.63A0.656,0.656,0,0,0,398.787,3780.49Zm5.69-2.97a0.666,0.666,0,0,1,0,.94l-0.128.12-0.939-.93,0.128-.13A0.663,0.663,0,0,1,404.477,3777.52Zm-4.467,3.51,2.459-2.45,0.94,0.94-2.446,2.44-1.348.37Zm-2.212-1.72a0.667,0.667,0,0,1-.618.71,4.506,4.506,0,1,0,4.823,4.7,0.664,0.664,0,0,1,1.327.06,5.852,5.852,0,0,1-5.838,5.57,5.832,5.832,0,0,1-.4-11.65A0.659,0.659,0,0,1,397.8,3779.31Zm-2.2,5.21a1.894,1.894,0,0,0,3.524.95,0.665,0.665,0,0,1,1.144.68,3.223,3.223,0,0,1-6-1.63,3.213,3.213,0,0,1,1.7-2.84,0.663,0.663,0,1,1,.626,1.17A1.891,1.891,0,0,0,395.6,3784.52Zm10.4,0a8.5,8.5,0,1,1-8.5-8.49,8.54,8.54,0,0,1,2.149.27,0.666,0.666,0,1,1-.329,1.29,7.273,7.273,0,0,0-1.82-.23,7.155,7.155,0,1,0,7.171,7.16,7.088,7.088,0,0,0-.214-1.74,0.66,0.66,0,0,1,.167-0.63,0.669,0.669,0,0,1,1.123.3A8.527,8.527,0,0,1,406,3784.52Z" transform="translate(-389 -3776.03)"/>
</svg>
